<svg width="1487.1899" height="1052.3622" xmlns="http://www.w3.org/2000/svg">

 <g>
  <title>background</title>
  <rect fill="none" id="canvas_background" height="402" width="582" y="-1" x="-1"/>
 </g>
 <g>
  <title>Layer 1</title>
  <path id="svg_2" stroke-width="5" stroke="#000" fill="#fff" d="m737.949998,319.267084c0,48.816 -39.573,88.388 -88.388,88.388s-88.388,-39.573 -88.388,-88.388s39.573,-88.388 88.388,-88.388s88.388,39.573 88.388,88.388z"/>
  <path id="svg_4" d="m649.629057,270.445136c6.691487,0 12.117081,-5.425594 12.117081,-12.117675s-5.425594,-12.117378 -12.117081,-12.117378s-12.117081,5.425594 -12.117081,12.117378s5.424704,12.117675 12.117081,12.117675z"/>
  <path id="svg_5" d="m649.629057,258.327462"/>
  <path id="svg_6" d="m636.661816,273.119357c-8.580831,0 -15.481816,6.998316 -15.481816,15.72722l0,37.205261c0,7.233037 10.585606,7.233037 10.585606,0l0,-34.018274l2.505969,0l0,93.149653c0,9.670757 14.09604,9.386183 14.09604,0l0,-54.071963l2.427927,0l0,54.071963c0,9.386183 14.173489,9.670757 14.173489,0l0,-93.149653l2.447215,0l0,34.018274c0,7.288825 10.530412,7.288528 10.511421,0l0,-36.979739c0,-8.049072 -6.250531,-15.933158 -15.672026,-15.933158l-25.593825,-0.016617l0,-0.002967z"/>
  <path id="svg_7" stroke-width="5" stroke="#000" fill="#fff" d="m312.619996,189.390086c0,48.816 -39.573,88.388 -88.388,88.388s-88.388,-39.573 -88.388,-88.388s39.573,-88.388 88.388,-88.388s88.388,39.573 88.388,88.388z"/>
  <path id="svg_9" d="m224.309057,140.575136c6.691487,0 12.117081,-5.425594 12.117081,-12.117675s-5.425594,-12.117378 -12.117081,-12.117378s-12.117081,5.425594 -12.117081,12.117378s5.424704,12.117675 12.117081,12.117675z"/>
  <path id="svg_10" d="m224.309057,128.457462"/>
  <path id="svg_11" d="m211.341816,143.249357c-8.580831,0 -15.481816,6.998316 -15.481816,15.72722l0,37.205261c0,7.233037 10.585606,7.233037 10.585606,0l0,-34.018274l2.505969,0l0,93.149653c0,9.670757 14.09604,9.386183 14.09604,0l0,-54.071963l2.427927,0l0,54.071963c0,9.386183 14.173489,9.670757 14.173489,0l0,-93.149653l2.447215,0l0,34.018274c0,7.288825 10.530412,7.288528 10.511421,0l0,-36.979739c0,-8.049072 -6.250531,-15.933158 -15.672026,-15.933158l-25.593825,-0.016617l0,-0.002967z"/>
  <path id="svg_12" stroke-width="5" stroke="#000" fill="#fff" d="m372.379998,807.010081c0,48.816 -39.573,88.388 -88.388,88.388s-88.388,-39.573 -88.388,-88.388s39.573,-88.388 88.388,-88.388s88.388,39.573 88.388,88.388z"/>
  <path id="svg_14" d="m284.069057,758.185136c6.691487,0 12.117081,-5.425594 12.117081,-12.117675s-5.425594,-12.117378 -12.117081,-12.117378s-12.117081,5.425594 -12.117081,12.117378s5.424704,12.117675 12.117081,12.117675z"/>
  <path id="svg_15" d="m284.069057,746.067462"/>
  <path id="svg_16" d="m271.101816,760.859357c-8.580831,0 -15.481816,6.998316 -15.481816,15.72722l0,37.205261c0,7.233038 10.585606,7.233038 10.585606,0l0,-34.018274l2.505969,0l0,93.149653c0,9.670757 14.09604,9.386183 14.09604,0l0,-54.071963l2.427927,0l0,54.071963c0,9.386183 14.173489,9.670757 14.173489,0l0,-93.149653l2.447215,0l0,34.018274c0,7.288825 10.530412,7.288528 10.511421,0l0,-36.979739c0,-8.049072 -6.250531,-15.933158 -15.672026,-15.933158l-25.593825,-0.016617l0,-0.002967z"/>
  <path id="svg_17" stroke-width="5" stroke="#000" fill="#fff" d="m1142.370027,418.390086c0,48.816 -39.573,88.388 -88.388,88.388s-88.388,-39.573 -88.388,-88.388s39.573,-88.388 88.388,-88.388s88.388,39.573 88.388,88.388z"/>
  <path id="svg_19" d="m1054.049057,369.575136c6.691487,0 12.117081,-5.425594 12.117081,-12.117675s-5.425594,-12.117378 -12.117081,-12.117378s-12.117081,5.425594 -12.117081,12.117378s5.424704,12.117675 12.117081,12.117675z"/>
  <path id="svg_20" d="m1054.049057,357.457462"/>
  <path id="svg_21" d="m1041.081816,372.249357c-8.580831,0 -15.481816,6.998316 -15.481816,15.72722l0,37.205261c0,7.233038 10.585606,7.233038 10.585606,0l0,-34.018274l2.505969,0l0,93.149653c0,9.670757 14.09604,9.386183 14.09604,0l0,-54.071963l2.427927,0l0,54.071963c0,9.386183 14.173489,9.670757 14.173489,0l0,-93.149653l2.447215,0l0,34.018274c0,7.288825 10.530412,7.288528 10.511421,0l0,-36.979739c0,-8.049073 -6.250531,-15.933158 -15.672026,-15.933158l-25.593825,-0.016617l0,-0.002967z"/>
  <path id="svg_22" stroke-width="5" stroke="#0088ce" fill="#fff" d="m837.450013,707.600078c0,48.816 -39.573,88.388 -88.388,88.388s-88.388,-39.573 -88.388,-88.388s39.573,-88.388 88.388,-88.388s88.388,39.573 88.388,88.388z"/>
  <path fill="#0088ce" id="svg_25" d="m749.139057,658.785136c6.691487,0 12.117081,-5.425594 12.117081,-12.117675s-5.425594,-12.117378 -12.117081,-12.117378s-12.117081,5.425594 -12.117081,12.117378s5.424704,12.117675 12.117081,12.117675z"/>
  <path id="svg_26" d="m749.139057,646.667462"/>
  <path fill="#0088ce" id="svg_27" d="m736.171816,661.459357c-8.580831,0 -15.481816,6.998316 -15.481816,15.72722l0,37.205261c0,7.233038 10.585606,7.233038 10.585606,0l0,-34.018274l2.505969,0l0,93.149653c0,9.670757 14.09604,9.386183 14.09604,0l0,-54.071963l2.427927,0l0,54.071963c0,9.386183 14.173489,9.670757 14.173489,0l0,-93.149653l2.447215,0l0,34.018274c0,7.288825 10.530412,7.288528 10.511421,0l0,-36.979739c0,-8.049072 -6.250531,-15.933158 -15.672026,-15.933158l-25.593825,-0.016617l0,-0.002967z"/>
  <path id="svg_28" stroke-width="5" stroke="#000" fill="#fff" d="m1257.620027,887.090098c0,48.816 -39.573,88.388 -88.388,88.388s-88.388,-39.573 -88.388,-88.388s39.573,-88.388 88.388,-88.388s88.388,39.573 88.388,88.388z"/>
  <path id="svg_30" d="m1169.349057,838.265136c6.691487,0 12.117081,-5.425594 12.117081,-12.117675s-5.425594,-12.117378 -12.117081,-12.117378s-12.117081,5.425594 -12.117081,12.117378s5.424704,12.117675 12.117081,12.117675z"/>
  <path id="svg_31" d="m1169.349057,826.147462"/>
  <path id="svg_32" d="m1156.381816,840.939357c-8.580831,0 -15.481816,6.998316 -15.481816,15.72722l0,37.205261c0,7.233038 10.585606,7.233038 10.585606,0l0,-34.018274l2.505969,0l0,93.149653c0,9.670757 14.09604,9.386183 14.09604,0l0,-54.071963l2.427927,0l0,54.071963c0,9.386183 14.173489,9.670757 14.173489,0l0,-93.149653l2.447215,0l0,34.018274c0,7.288825 10.530412,7.288528 10.511421,0l0,-36.979739c0,-8.049072 -6.250531,-15.933158 -15.672026,-15.933158l-25.593825,-0.016617l0,-0.002967z"/>
  <path id="svg_33" stroke-width="5" stroke="#000" fill="#fff" d="m1339.470002,160.880076c0,48.816 -39.573,88.388 -88.388,88.388s-88.388,-39.573 -88.388,-88.388s39.573,-88.388 88.388,-88.388s88.388,39.573 88.388,88.388z"/>
  <path id="svg_35" d="m1251.149057,112.059136c6.691487,0 12.117081,-5.425594 12.117081,-12.117675s-5.425594,-12.117378 -12.117081,-12.117378s-12.117081,5.425594 -12.117081,12.117378s5.424704,12.117675 12.117081,12.117675z"/>
  <path id="svg_36" d="m1251.149057,99.941462"/>
  <path id="svg_37" d="m1238.181816,114.733357c-8.580831,0 -15.481816,6.998316 -15.481816,15.72722l0,37.205261c0,7.233038 10.585606,7.233038 10.585606,0l0,-34.018274l2.505969,0l0,93.149653c0,9.670757 14.09604,9.386183 14.09604,0l0,-54.071963l2.427927,0l0,54.071963c0,9.386183 14.173489,9.670757 14.173489,0l0,-93.149653l2.447215,0l0,34.018274c0,7.288825 10.530412,7.288528 10.511421,0l0,-36.979739c0,-8.049072 -6.250531,-15.933158 -15.672026,-15.933158l-25.593825,-0.016617l0,-0.002967z"/>
  <path id="svg_38" stroke-width="5" stroke-linecap="round" stroke="#000" fill="none" d="m320.06,216.91l236.1,68.689"/>
  <path id="svg_39" stroke-width="5" stroke-linecap="round" stroke="#000" fill="none" d="m744.19,348.85l210.88,49.184"/>
  <path id="svg_40" stroke-width="5" stroke-linecap="round" stroke="#000" fill="none" d="m1113.4,340.01l78.621,-99.898"/>
  <path id="svg_41" stroke-width="5" stroke-linecap="round" stroke="#000" fill="none" d="m666.93,416.65l57.083,194.66"/>
  <path id="svg_42" stroke-width="5" stroke-linecap="round" stroke="#000" fill="#f50" d="m988.45,493.090084l-160.36,155.76"/>
  <path id="svg_43" stroke-width="5" stroke-linecap="round" stroke="#000" fill="none" d="m381.92,787.07l270.22,-60.368"/>
  <path id="svg_44" stroke-width="5" stroke-linecap="round" stroke="#000" fill="none" d="m830.37,764.48l242.71,98.561"/>
  <path id="svg_45" stroke-width="5" stroke-linecap="round" stroke="#000" fill="none" d="m662.21,661.53l-385.88,-387.11"/>
  <path id="svg_46" stroke-width="5" stroke-linecap="round" stroke="#000" fill="none" d="m572.02,378.95l-242.27,339.7"/>
  <path id="svg_47" stroke-width="5" stroke-linecap="round" stroke="#000" fill="none" d="m741.07,279.35l411.19,-104.54"/>
  <path id="svg_48" stroke-width="5" stroke-linecap="round" stroke="#000" fill="none" d="m1241.2,261.57l-54.112,527.86"/>
  <path id="svg_49" stroke-width="5" stroke-linecap="round" stroke="#000" fill="none" d="m1084.1,511.64l48.926,282.98"/>
 </g>
</svg>