<?xml version="1.0" encoding="UTF-8" standalone="no"?>
<!DOCTYPE svg PUBLIC "-//W3C//DTD SVG 1.1//EN" "http://www.w3.org/Graphics/SVG/1.1/DTD/svg11.dtd">
<svg version="1.1" xmlns="http://www.w3.org/2000/svg" xmlns:xlink="http://www.w3.org/1999/xlink" preserveAspectRatio="xMidYMid meet" viewBox="263.14712269272536 13.939739413680797 161.02551574375684 155.1188925081433" width="156.53" height="150.62"><defs><path d="M332.37 87.8L329.42 97.39L321.3 104.04L311.7 108.47L302.1 111.42L297.67 121.02" id="a3kmwOIVxK"></path><path d="M297.67 120.28L313.64 120.65L328.54 120.65L343.44 121.02L358.34 121.02L373.25 121.02L388.15 121.02" id="g5JThVzqf"></path><path d="M353.45 87.8L356.4 97.39L364.52 104.04L374.12 108.47L383.72 111.42L388.15 121.02" id="b78Tu3nvUT"></path><path d="M342.91 68.97C342.91 70.39 342.91 71.55 342.91 71.55C342.91 71.55 342.91 70.39 342.91 68.97C342.91 67.54 342.91 66.38 342.91 66.38C342.91 66.9 342.91 67.54 342.91 68.97Z" id="a4sf5pg2zN"></path><path d="M364.69 68.97C364.69 80.99 354.93 90.75 342.91 90.75C330.89 90.75 321.13 80.99 321.13 68.97C321.13 56.95 330.89 47.19 342.91 47.19C354.93 47.19 364.69 56.95 364.69 68.97Z" id="czuYo2EHn"></path><path d="M421.17 90.75C421.17 132.31 386.1 166.06 342.91 166.06C299.72 166.06 264.65 132.31 264.65 90.75C264.65 49.18 299.72 15.44 342.91 15.44C386.1 15.44 421.17 49.18 421.17 90.75Z" id="b7OYEfh5d3"></path></defs><g><g><g><use xlink:href="#a3kmwOIVxK" opacity="1" fill-opacity="0" stroke="#00fffc" stroke-width="3" stroke-opacity="1"></use></g></g><g><use xlink:href="#g5JThVzqf" opacity="1" fill="#d16b19" fill-opacity="1"></use><g><use xlink:href="#g5JThVzqf" opacity="1" fill-opacity="0" stroke="#00fffc" stroke-width="3" stroke-opacity="1"></use></g></g><g><g><use xlink:href="#b78Tu3nvUT" opacity="1" fill-opacity="0" stroke="#00fffc" stroke-width="3" stroke-opacity="1"></use></g></g><g><use xlink:href="#a4sf5pg2zN" opacity="1" fill="#8ca748" fill-opacity="1"></use></g><g><use xlink:href="#czuYo2EHn" opacity="1" fill="#ffffff" fill-opacity="0"></use><g><use xlink:href="#czuYo2EHn" opacity="1" fill-opacity="0" stroke="#00fffc" stroke-width="3" stroke-opacity="1"></use></g></g><g><use xlink:href="#b7OYEfh5d3" opacity="1" fill="#2beaff" fill-opacity="0"></use><g><use xlink:href="#b7OYEfh5d3" opacity="1" fill-opacity="0" stroke="#00fffc" stroke-width="3" stroke-opacity="1"></use></g></g></g></svg>